<?xml version="1.0" encoding="UTF-8"?>
<svg id="Layer_1" data-name="Layer 1" xmlns="http://www.w3.org/2000/svg" viewBox="0 0 42 42">
  <defs>
    <style>
      .cls-1 {
        fill: #fff;
      }

      .cls-2 {
        fill: #ff5023;
        fill-rule: evenodd;
      }
    </style>
  </defs>
  <circle class="cls-1" cx="21" cy="21" r="21"/>
  <path class="cls-2" d="M29.5,12.49c-2.26-2.25-5.26-3.49-8.45-3.49-6.59,0-11.95,5.33-11.95,11.89,0,2.1,.55,4.14,1.6,5.95l-1.7,6.16,6.33-1.65c1.75,.95,3.71,1.45,5.71,1.45h0c6.59,0,11.95-5.34,11.95-11.89,0-3.18-1.24-6.17-3.5-8.41h0Zm-8.45,18.3h0c-1.78,0-3.53-.48-5.06-1.38l-.36-.21-3.76,.98,1-3.65-.24-.37c-.99-1.57-1.52-3.39-1.52-5.26,0-5.45,4.46-9.88,9.94-9.88,2.65,0,5.15,1.03,7.02,2.9,1.88,1.87,2.91,4.35,2.91,6.99,0,5.45-4.46,9.88-9.93,9.88h0Zm5.45-7.4c-.3-.15-1.77-.87-2.04-.97-.27-.1-.47-.15-.67,.15-.2,.3-.77,.97-.95,1.16-.17,.2-.35,.22-.65,.07-.3-.15-1.26-.46-2.4-1.47-.89-.79-1.49-1.76-1.66-2.06-.17-.3-.02-.46,.13-.61,.13-.13,.3-.35,.45-.52,.15-.17,.2-.3,.3-.5,.1-.2,.05-.37-.02-.52-.07-.15-.67-1.61-.92-2.21-.24-.58-.49-.5-.67-.51-.17,0-.37-.01-.57-.01s-.52,.07-.8,.37c-.27,.3-1.05,1.02-1.05,2.48s1.07,2.88,1.22,3.07c.15,.2,2.11,3.2,5.1,4.49,.71,.31,1.27,.49,1.7,.63,.72,.23,1.37,.19,1.88,.12,.57-.09,1.77-.72,2.02-1.41s.25-1.29,.17-1.41c-.07-.12-.27-.2-.57-.35h0Z"/>
</svg>
